# xmcd
#
# Track frame offsets: 
#        150
#        10962
#        45484
#        67210
#        82605
#        109749
#        131392
#        161906
#        184491
#        196548
#
# Disc length: 2924 seconds
#
# Revision: 1
# Processed by: cddbd v1.5.2PL0 Copyright (c) Steve Scherf et al.
# Submitted via: ExactAudioCopy v0.99pb4
#
DISCID=7d0b6a0a
DTITLE=¿Ã∑Á∏∂ - h.i.s. monologue
DYEAR=2006
DGENRE=New Age
TTITLE0=h.i.s. monologue
TTITLE1=one day diary
TTITLE2=septemberise
TTITLE3=Lord...hold my hand
TTITLE4=air on D
TTITLE5=the sunbeams they scatter...
TTITLE6=poemusic-logue
TTITLE7=Improvisation
TTITLE8=h.i.s. heaven
TTITLE9=he knows my name
EXTD=YEAR: 2006
EXTT0=
EXTT1=
EXTT2=
EXTT3=
EXTT4=
EXTT5=
EXTT6=
EXTT7=
EXTT8=
EXTT9=
PLAYORDER=
